<svg xmlns="http://www.w3.org/2000/svg" width="179" height="54" viewBox="0 0 179 54" fill="none">
  <g transform="translate(0,4) scale(0.4792)"><path d="M 17.26 61.61 A 31 31 0 1 1 34.39 78.74" stroke="#eef2f8" stroke-width="5" stroke-linecap="round" fill="none" opacity="0.92"/><path d="M 27.67 55.62 A 23 23 0 1 1 40.38 68.33" stroke="#eef2f8" stroke-width="5" stroke-linecap="round" fill="none" opacity="0.92"/><path d="M 39.09 48.62 A 15 15 0 1 1 47.38 56.91" stroke="#eef2f8" stroke-width="5" stroke-linecap="round" fill="none" opacity="0.92"/><path d="M 49.58 42.00 A 8 8 0 1 1 54.00 46.42" stroke="#5fe0ff" stroke-width="5" stroke-linecap="round" fill="none" opacity="1"/><circle cx="61" cy="35" r="4.6" fill="#5fe0ff"/></g>
  <g transform="translate(58,31)" fill="#eef2f8"><path d="M336 -19Q237 -19 169.0 12.5Q101 44 66.0 98.5Q31 153 31 224H190Q190 196 205.5 172.0Q221 148 253.0 133.5Q285 119 336 119Q382 119 413.0 131.0Q444 143 460.0 164.5Q476 186 476 214Q476 249 446.0 269.5Q416 290 349 296L294 301Q185 310 120.0 369.0Q55 428 55 525Q55 595 88.5 646.0Q122 697 182.0 724.5Q242 752 324 752Q410 752 471.5 722.5Q533 693 566.0 639.5Q599 586 599 514H439Q439 541 426.0 563.5Q413 586 387.5 600.0Q362 614 324 614Q288 614 263.5 602.0Q239 590 227.0 569.5Q215 549 215 525Q215 494 237.0 471.0Q259 448 309 444L365 439Q445 432 506.0 404.5Q567 377 601.5 329.5Q636 282 636 214Q636 144 599.5 91.5Q563 39 496.0 10.0Q429 -19 336 -19Z" transform="translate(0.00,0) scale(0.03400,-0.03400)"/><path d="M99 0V548H259V0ZM26 430V548H259V430ZM161 602Q116 602 94.5 625.5Q73 649 73 685Q73 722 94.5 745.5Q116 769 161 769Q206 769 227.5 745.5Q249 722 249 685Q249 649 227.5 625.5Q206 602 161 602Z" transform="translate(22.68,0) scale(0.03400,-0.03400)"/><path d="M322 -7Q239 -7 188.0 13.5Q137 34 113.5 82.5Q90 131 90 214V696H239V208Q239 169 259.5 148.5Q280 128 318 128H399V-7ZM7 431V548H399V431Z" transform="translate(34.03,0) scale(0.03400,-0.03400)"/><path d="M324 -19Q254 -19 200.5 5.0Q147 29 111.5 69.5Q76 110 57.5 160.5Q39 211 39 264V284Q39 339 57.5 389.5Q76 440 111.0 480.0Q146 520 198.5 543.5Q251 567 318 567Q406 567 466.5 527.5Q527 488 559.0 424.5Q591 361 591 286V232H106V323H494L442 281Q442 330 428.0 365.0Q414 400 386.5 418.5Q359 437 318 437Q276 437 247.0 418.0Q218 399 203.0 362.5Q188 326 188 273Q188 224 202.0 187.5Q216 151 246.0 131.0Q276 111 324 111Q368 111 396.0 128.0Q424 145 434 170H581Q569 115 534.0 72.0Q499 29 446.0 5.0Q393 -19 324 -19Z" transform="translate(48.79,0) scale(0.03400,-0.03400)"/><path d="M73 0V548H200V313H197Q197 429 246.5 492.0Q296 555 390 555H411V417H371Q305 417 269.0 381.5Q233 346 233 279V0Z" transform="translate(70.01,0) scale(0.03400,-0.03400)"/><path d="M73 0V548H200V313H197Q197 429 246.5 492.0Q296 555 390 555H411V417H371Q305 417 269.0 381.5Q233 346 233 279V0Z" transform="translate(84.32,0) scale(0.03400,-0.03400)"/><path d="M404 0V162H377V338Q377 380 357.0 401.0Q337 422 293 422Q271 422 235.0 421.0Q199 420 161.0 418.0Q123 416 92 414V549Q115 551 146.0 553.0Q177 555 210.0 556.0Q243 557 272 557Q356 557 413.5 533.0Q471 509 501.0 460.5Q531 412 531 336V0ZM229 -14Q170 -14 125.5 7.0Q81 28 56.0 67.5Q31 107 31 162Q31 222 62.0 260.5Q93 299 149.0 317.5Q205 336 278 336H395V247H277Q235 247 212.5 226.5Q190 206 190 171Q190 138 212.5 117.5Q235 97 277 97Q304 97 325.5 106.5Q347 116 361.0 139.0Q375 162 377 203L415 163Q410 106 387.5 67.0Q365 28 325.5 7.0Q286 -14 229 -14Z" transform="translate(98.63,0) scale(0.03400,-0.03400)"/></g>
</svg>
