<svg xmlns="http://www.w3.org/2000/svg" width="1200" height="630" viewBox="0 0 1200 630" fill="none">
  <rect width="1200" height="630" fill="#07090d"/>
  <rect width="1200" height="630" fill="url(#g)"/>
  <defs><radialGradient id="g" cx="78%" cy="20%" r="80%"><stop offset="0%" stop-color="#5fe0ff" stop-opacity="0.10"/><stop offset="55%" stop-color="#07090d" stop-opacity="0"/></radialGradient></defs>
  <g transform="translate(1180,330)"><path d="M -111.26 44.95 A 120 120 0 1 1 -44.95 111.26" stroke="#99a5b8" stroke-width="2" fill="none" opacity="0.16"/><path d="M -162.26 65.56 A 175 175 0 1 1 -65.56 162.26" stroke="#99a5b8" stroke-width="2" fill="none" opacity="0.16"/><path d="M -213.25 86.16 A 230 230 0 1 1 -86.16 213.25" stroke="#5fe0ff" stroke-width="2" fill="none" opacity="0.5"/><path d="M -264.25 106.76 A 285 285 0 1 1 -106.76 264.25" stroke="#99a5b8" stroke-width="2" fill="none" opacity="0.16"/><path d="M -315.24 127.37 A 340 340 0 1 1 -127.37 315.24" stroke="#99a5b8" stroke-width="2" fill="none" opacity="0.16"/></g>
  <g transform="translate(80,64) scale(0.7708)"><path d="M 17.26 61.61 A 31 31 0 1 1 34.39 78.74" stroke="#eef2f8" stroke-width="5" stroke-linecap="round" fill="none" opacity="0.92"/><path d="M 27.67 55.62 A 23 23 0 1 1 40.38 68.33" stroke="#eef2f8" stroke-width="5" stroke-linecap="round" fill="none" opacity="0.92"/><path d="M 39.09 48.62 A 15 15 0 1 1 47.38 56.91" stroke="#eef2f8" stroke-width="5" stroke-linecap="round" fill="none" opacity="0.92"/><path d="M 49.58 42.00 A 8 8 0 1 1 54.00 46.42" stroke="#5fe0ff" stroke-width="5" stroke-linecap="round" fill="none" opacity="1"/><circle cx="61" cy="35" r="4.6" fill="#5fe0ff"/></g>
  <g transform="translate(172,124)" fill="#eef2f8"><path d="M336 -19Q237 -19 169.0 12.5Q101 44 66.0 98.5Q31 153 31 224H190Q190 196 205.5 172.0Q221 148 253.0 133.5Q285 119 336 119Q382 119 413.0 131.0Q444 143 460.0 164.5Q476 186 476 214Q476 249 446.0 269.5Q416 290 349 296L294 301Q185 310 120.0 369.0Q55 428 55 525Q55 595 88.5 646.0Q122 697 182.0 724.5Q242 752 324 752Q410 752 471.5 722.5Q533 693 566.0 639.5Q599 586 599 514H439Q439 541 426.0 563.5Q413 586 387.5 600.0Q362 614 324 614Q288 614 263.5 602.0Q239 590 227.0 569.5Q215 549 215 525Q215 494 237.0 471.0Q259 448 309 444L365 439Q445 432 506.0 404.5Q567 377 601.5 329.5Q636 282 636 214Q636 144 599.5 91.5Q563 39 496.0 10.0Q429 -19 336 -19Z" transform="translate(0.00,0) scale(0.04600,-0.04600)"/><path d="M99 0V548H259V0ZM26 430V548H259V430ZM161 602Q116 602 94.5 625.5Q73 649 73 685Q73 722 94.5 745.5Q116 769 161 769Q206 769 227.5 745.5Q249 722 249 685Q249 649 227.5 625.5Q206 602 161 602Z" transform="translate(30.68,0) scale(0.04600,-0.04600)"/><path d="M322 -7Q239 -7 188.0 13.5Q137 34 113.5 82.5Q90 131 90 214V696H239V208Q239 169 259.5 148.5Q280 128 318 128H399V-7ZM7 431V548H399V431Z" transform="translate(46.05,0) scale(0.04600,-0.04600)"/><path d="M324 -19Q254 -19 200.5 5.0Q147 29 111.5 69.5Q76 110 57.5 160.5Q39 211 39 264V284Q39 339 57.5 389.5Q76 440 111.0 480.0Q146 520 198.5 543.5Q251 567 318 567Q406 567 466.5 527.5Q527 488 559.0 424.5Q591 361 591 286V232H106V323H494L442 281Q442 330 428.0 365.0Q414 400 386.5 418.5Q359 437 318 437Q276 437 247.0 418.0Q218 399 203.0 362.5Q188 326 188 273Q188 224 202.0 187.5Q216 151 246.0 131.0Q276 111 324 111Q368 111 396.0 128.0Q424 145 434 170H581Q569 115 534.0 72.0Q499 29 446.0 5.0Q393 -19 324 -19Z" transform="translate(66.01,0) scale(0.04600,-0.04600)"/><path d="M73 0V548H200V313H197Q197 429 246.5 492.0Q296 555 390 555H411V417H371Q305 417 269.0 381.5Q233 346 233 279V0Z" transform="translate(94.71,0) scale(0.04600,-0.04600)"/><path d="M73 0V548H200V313H197Q197 429 246.5 492.0Q296 555 390 555H411V417H371Q305 417 269.0 381.5Q233 346 233 279V0Z" transform="translate(114.08,0) scale(0.04600,-0.04600)"/><path d="M404 0V162H377V338Q377 380 357.0 401.0Q337 422 293 422Q271 422 235.0 421.0Q199 420 161.0 418.0Q123 416 92 414V549Q115 551 146.0 553.0Q177 555 210.0 556.0Q243 557 272 557Q356 557 413.5 533.0Q471 509 501.0 460.5Q531 412 531 336V0ZM229 -14Q170 -14 125.5 7.0Q81 28 56.0 67.5Q31 107 31 162Q31 222 62.0 260.5Q93 299 149.0 317.5Q205 336 278 336H395V247H277Q235 247 212.5 226.5Q190 206 190 171Q190 138 212.5 117.5Q235 97 277 97Q304 97 325.5 106.5Q347 116 361.0 139.0Q375 162 377 203L415 163Q410 106 387.5 67.0Q365 28 325.5 7.0Q286 -14 229 -14Z" transform="translate(133.45,0) scale(0.04600,-0.04600)"/></g>
  <g transform="translate(80,330)" fill="#eef2f8"><path d="M82 0V730H246V0ZM226 0V144H532V0Z" transform="translate(0.00,0) scale(0.07800,-0.07800)"/><path d="M340 -19Q268 -19 212.0 3.5Q156 26 117.5 65.0Q79 104 59.0 154.5Q39 205 39 261V284Q39 341 59.5 392.5Q80 444 119.5 483.0Q159 522 215.0 544.5Q271 567 340 567Q411 567 466.5 544.5Q522 522 561.0 483.0Q600 444 621.0 392.5Q642 341 642 284V261Q642 205 622.0 154.5Q602 104 563.5 65.0Q525 26 469.0 3.5Q413 -19 340 -19ZM340 116Q387 116 418.0 136.0Q449 156 465.5 192.0Q482 228 482 272Q482 319 465.0 354.5Q448 390 416.5 411.0Q385 432 340 432Q296 432 264.0 411.0Q232 390 215.5 354.5Q199 319 199 272Q199 228 215.0 192.0Q231 156 263.0 136.0Q295 116 340 116Z" transform="translate(43.52,0) scale(0.07800,-0.07800)"/><path d="M340 -19Q268 -19 212.0 3.5Q156 26 117.5 65.0Q79 104 59.0 154.5Q39 205 39 261V284Q39 341 59.5 392.5Q80 444 119.5 483.0Q159 522 215.0 544.5Q271 567 340 567Q411 567 466.5 544.5Q522 522 561.0 483.0Q600 444 621.0 392.5Q642 341 642 284V261Q642 205 622.0 154.5Q602 104 563.5 65.0Q525 26 469.0 3.5Q413 -19 340 -19ZM340 116Q387 116 418.0 136.0Q449 156 465.5 192.0Q482 228 482 272Q482 319 465.0 354.5Q448 390 416.5 411.0Q385 432 340 432Q296 432 264.0 411.0Q232 390 215.5 354.5Q199 319 199 272Q199 228 215.0 192.0Q231 156 263.0 136.0Q295 116 340 116Z" transform="translate(96.64,0) scale(0.07800,-0.07800)"/><path d="M459 0 286 256H209L432 548H600L390 276L392 354L639 0ZM73 0V730H233V0Z" transform="translate(149.76,0) scale(0.07800,-0.07800)"/><path d="M80 0V730H241V0ZM15 612V730H241V612Z" transform="translate(215.98,0) scale(0.07800,-0.07800)"/><path d="M99 0V548H259V0ZM26 430V548H259V430ZM161 602Q116 602 94.5 625.5Q73 649 73 685Q73 722 94.5 745.5Q116 769 161 769Q206 769 227.5 745.5Q249 722 249 685Q249 649 227.5 625.5Q206 602 161 602Z" transform="translate(240.55,0) scale(0.07800,-0.07800)"/><path d="M459 0 286 256H209L432 548H600L390 276L392 354L639 0ZM73 0V730H233V0Z" transform="translate(266.60,0) scale(0.07800,-0.07800)"/><path d="M324 -19Q254 -19 200.5 5.0Q147 29 111.5 69.5Q76 110 57.5 160.5Q39 211 39 264V284Q39 339 57.5 389.5Q76 440 111.0 480.0Q146 520 198.5 543.5Q251 567 318 567Q406 567 466.5 527.5Q527 488 559.0 424.5Q591 361 591 286V232H106V323H494L442 281Q442 330 428.0 365.0Q414 400 386.5 418.5Q359 437 318 437Q276 437 247.0 418.0Q218 399 203.0 362.5Q188 326 188 273Q188 224 202.0 187.5Q216 151 246.0 131.0Q276 111 324 111Q368 111 396.0 128.0Q424 145 434 170H581Q569 115 534.0 72.0Q499 29 446.0 5.0Q393 -19 324 -19Z" transform="translate(316.45,0) scale(0.07800,-0.07800)"/><path d="M322 -7Q239 -7 188.0 13.5Q137 34 113.5 82.5Q90 131 90 214V696H239V208Q239 169 259.5 148.5Q280 128 318 128H399V-7ZM7 431V548H399V431Z" transform="translate(381.50,0) scale(0.07800,-0.07800)"/><path d="M73 0V730H233V309H209Q209 392 230.0 449.0Q251 506 292.0 535.5Q333 565 395 565H402Q493 565 541.0 500.5Q589 436 589 312V0H429V322Q429 367 402.5 394.5Q376 422 333 422Q288 422 260.5 393.0Q233 364 233 316V0Z" transform="translate(415.35,0) scale(0.07800,-0.07800)"/><path d="M324 -19Q254 -19 200.5 5.0Q147 29 111.5 69.5Q76 110 57.5 160.5Q39 211 39 264V284Q39 339 57.5 389.5Q76 440 111.0 480.0Q146 520 198.5 543.5Q251 567 318 567Q406 567 466.5 527.5Q527 488 559.0 424.5Q591 361 591 286V232H106V323H494L442 281Q442 330 428.0 365.0Q414 400 386.5 418.5Q359 437 318 437Q276 437 247.0 418.0Q218 399 203.0 362.5Q188 326 188 273Q188 224 202.0 187.5Q216 151 246.0 131.0Q276 111 324 111Q368 111 396.0 128.0Q424 145 434 170H581Q569 115 534.0 72.0Q499 29 446.0 5.0Q393 -19 324 -19Z" transform="translate(466.21,0) scale(0.07800,-0.07800)"/></g>
  <g transform="translate(80,430)" fill="#5fe0ff"><path d="M340 -19Q268 -19 212.0 3.5Q156 26 117.5 65.0Q79 104 59.0 154.5Q39 205 39 261V284Q39 341 59.5 392.5Q80 444 119.5 483.0Q159 522 215.0 544.5Q271 567 340 567Q411 567 466.5 544.5Q522 522 561.0 483.0Q600 444 621.0 392.5Q642 341 642 284V261Q642 205 622.0 154.5Q602 104 563.5 65.0Q525 26 469.0 3.5Q413 -19 340 -19ZM340 116Q387 116 418.0 136.0Q449 156 465.5 192.0Q482 228 482 272Q482 319 465.0 354.5Q448 390 416.5 411.0Q385 432 340 432Q296 432 264.0 411.0Q232 390 215.5 354.5Q199 319 199 272Q199 228 215.0 192.0Q231 156 263.0 136.0Q295 116 340 116Z" transform="translate(0.00,0) scale(0.07800,-0.07800)"/><path d="M410 -18Q343 -18 292.0 10.5Q241 39 212.0 93.0Q183 147 181 225H200V0H73V730H233V359L195 311Q198 394 226.5 450.5Q255 507 305.0 535.5Q355 564 419 564Q475 564 520.5 543.5Q566 523 598.0 485.5Q630 448 647.5 397.0Q665 346 665 286V264Q665 204 647.5 153.0Q630 102 596.5 63.5Q563 25 516.0 3.5Q469 -18 410 -18ZM368 116Q409 116 439.5 136.0Q470 156 487.0 192.5Q504 229 504 275Q504 322 487.0 357.0Q470 392 439.5 411.5Q409 431 368 431Q332 431 300.0 414.0Q268 397 248.5 365.5Q229 334 229 289V252Q229 209 249.5 178.5Q270 148 302.0 132.0Q334 116 368 116Z" transform="translate(53.12,0) scale(0.07800,-0.07800)"/><path d="M179 0 15 548H180L334 0ZM229 0V133H390V0ZM288 0 421 548H575L433 0Z" transform="translate(107.95,0) scale(0.07800,-0.07800)"/><path d="M99 0V548H259V0ZM26 430V548H259V430ZM161 602Q116 602 94.5 625.5Q73 649 73 685Q73 722 94.5 745.5Q116 769 161 769Q206 769 227.5 745.5Q249 722 249 685Q249 649 227.5 625.5Q206 602 161 602Z" transform="translate(154.52,0) scale(0.07800,-0.07800)"/><path d="M340 -19Q268 -19 212.0 3.5Q156 26 117.5 65.0Q79 104 59.0 154.5Q39 205 39 261V284Q39 341 59.5 392.5Q80 444 119.5 483.0Q159 522 215.0 544.5Q271 567 340 567Q411 567 466.5 544.5Q522 522 561.0 483.0Q600 444 621.0 392.5Q642 341 642 284V261Q642 205 622.0 154.5Q602 104 563.5 65.0Q525 26 469.0 3.5Q413 -19 340 -19ZM340 116Q387 116 418.0 136.0Q449 156 465.5 192.0Q482 228 482 272Q482 319 465.0 354.5Q448 390 416.5 411.0Q385 432 340 432Q296 432 264.0 411.0Q232 390 215.5 354.5Q199 319 199 272Q199 228 215.0 192.0Q231 156 263.0 136.0Q295 116 340 116Z" transform="translate(180.57,0) scale(0.07800,-0.07800)"/><path d="M258 -17Q163 -17 112.0 44.5Q61 106 61 230V548H221V222Q221 178 246.0 152.0Q271 126 313 126Q356 126 383.0 153.0Q410 180 410 226V548H570V0H443V231H454Q454 148 432.5 92.5Q411 37 369.0 10.0Q327 -17 265 -17Z" transform="translate(233.69,0) scale(0.07800,-0.07800)"/><path d="M281 -17Q164 -17 98.0 31.0Q32 79 28 166H170Q174 140 201.5 119.5Q229 99 284 99Q326 99 353.5 113.5Q381 128 381 155Q381 179 360.0 193.5Q339 208 285 214L242 218Q143 228 93.5 273.0Q44 318 44 388Q44 446 73.0 485.0Q102 524 153.5 544.0Q205 564 271 564Q377 564 442.0 517.5Q507 471 510 383H368Q364 410 340.0 428.5Q316 447 269 447Q232 447 210.0 433.0Q188 419 188 395Q188 372 207.0 360.0Q226 348 269 343L312 339Q413 328 469.0 283.0Q525 238 525 162Q525 107 495.0 66.5Q465 26 410.0 4.5Q355 -17 281 -17Z" transform="translate(284.00,0) scale(0.07800,-0.07800)"/><path d="M319 -19Q248 -19 195.5 4.5Q143 28 108.0 68.0Q73 108 56.0 158.5Q39 209 39 263V282Q39 338 57.0 389.5Q75 441 110.0 481.0Q145 521 197.5 544.0Q250 567 318 567Q392 567 449.0 538.5Q506 510 540.0 459.0Q574 408 578 342H421Q417 379 391.5 404.5Q366 430 318 430Q278 430 251.5 410.0Q225 390 212.0 355.0Q199 320 199 272Q199 228 211.0 192.5Q223 157 249.5 137.5Q276 118 319 118Q351 118 373.5 129.5Q396 141 409.5 161.5Q423 182 426 209H582Q579 141 544.0 89.5Q509 38 451.0 9.5Q393 -19 319 -19Z" transform="translate(343.75,0) scale(0.07800,-0.07800)"/><path d="M73 0V730H233V309H209Q209 392 230.0 449.0Q251 506 292.0 535.5Q333 565 395 565H402Q493 565 541.0 500.5Q589 436 589 312V0H429V322Q429 367 402.5 394.5Q376 422 333 422Q288 422 260.5 393.0Q233 364 233 316V0Z" transform="translate(391.40,0) scale(0.07800,-0.07800)"/><path d="M340 -19Q268 -19 212.0 3.5Q156 26 117.5 65.0Q79 104 59.0 154.5Q39 205 39 261V284Q39 341 59.5 392.5Q80 444 119.5 483.0Q159 522 215.0 544.5Q271 567 340 567Q411 567 466.5 544.5Q522 522 561.0 483.0Q600 444 621.0 392.5Q642 341 642 284V261Q642 205 622.0 154.5Q602 104 563.5 65.0Q525 26 469.0 3.5Q413 -19 340 -19ZM340 116Q387 116 418.0 136.0Q449 156 465.5 192.0Q482 228 482 272Q482 319 465.0 354.5Q448 390 416.5 411.0Q385 432 340 432Q296 432 264.0 411.0Q232 390 215.5 354.5Q199 319 199 272Q199 228 215.0 192.0Q231 156 263.0 136.0Q295 116 340 116Z" transform="translate(442.26,0) scale(0.07800,-0.07800)"/><path d="M99 0V548H259V0ZM26 430V548H259V430ZM161 602Q116 602 94.5 625.5Q73 649 73 685Q73 722 94.5 745.5Q116 769 161 769Q206 769 227.5 745.5Q249 722 249 685Q249 649 227.5 625.5Q206 602 161 602Z" transform="translate(495.38,0) scale(0.07800,-0.07800)"/><path d="M319 -19Q248 -19 195.5 4.5Q143 28 108.0 68.0Q73 108 56.0 158.5Q39 209 39 263V282Q39 338 57.0 389.5Q75 441 110.0 481.0Q145 521 197.5 544.0Q250 567 318 567Q392 567 449.0 538.5Q506 510 540.0 459.0Q574 408 578 342H421Q417 379 391.5 404.5Q366 430 318 430Q278 430 251.5 410.0Q225 390 212.0 355.0Q199 320 199 272Q199 228 211.0 192.5Q223 157 249.5 137.5Q276 118 319 118Q351 118 373.5 129.5Q396 141 409.5 161.5Q423 182 426 209H582Q579 141 544.0 89.5Q509 38 451.0 9.5Q393 -19 319 -19Z" transform="translate(521.43,0) scale(0.07800,-0.07800)"/><path d="M324 -19Q254 -19 200.5 5.0Q147 29 111.5 69.5Q76 110 57.5 160.5Q39 211 39 264V284Q39 339 57.5 389.5Q76 440 111.0 480.0Q146 520 198.5 543.5Q251 567 318 567Q406 567 466.5 527.5Q527 488 559.0 424.5Q591 361 591 286V232H106V323H494L442 281Q442 330 428.0 365.0Q414 400 386.5 418.5Q359 437 318 437Q276 437 247.0 418.0Q218 399 203.0 362.5Q188 326 188 273Q188 224 202.0 187.5Q216 151 246.0 131.0Q276 111 324 111Q368 111 396.0 128.0Q424 145 434 170H581Q569 115 534.0 72.0Q499 29 446.0 5.0Q393 -19 324 -19Z" transform="translate(569.09,0) scale(0.07800,-0.07800)"/><path d="M48 0V179H224V0Z" transform="translate(617.76,0) scale(0.07800,-0.07800)"/></g>
  <g transform="translate(80,510)" fill="#99a5b8"><path d="M226 209V351H357Q395 351 422.5 366.0Q450 381 465.0 408.5Q480 436 480 472Q480 510 465.0 537.5Q450 565 422.5 579.5Q395 594 357 594H226V736H349Q442 736 508.5 705.0Q575 674 610.5 617.0Q646 560 646 480V464Q646 386 610.5 328.5Q575 271 508.5 240.0Q442 209 349 209ZM82 0V736H246V0Z" transform="translate(0.00,0) scale(0.02600,-0.02600)"/><path d="M73 0V548H200V313H197Q197 429 246.5 492.0Q296 555 390 555H411V417H371Q305 417 269.0 381.5Q233 346 233 279V0Z" transform="translate(17.34,0) scale(0.02600,-0.02600)"/><path d="M324 -19Q254 -19 200.5 5.0Q147 29 111.5 69.5Q76 110 57.5 160.5Q39 211 39 264V284Q39 339 57.5 389.5Q76 440 111.0 480.0Q146 520 198.5 543.5Q251 567 318 567Q406 567 466.5 527.5Q527 488 559.0 424.5Q591 361 591 286V232H106V323H494L442 281Q442 330 428.0 365.0Q414 400 386.5 418.5Q359 437 318 437Q276 437 247.0 418.0Q218 399 203.0 362.5Q188 326 188 273Q188 224 202.0 187.5Q216 151 246.0 131.0Q276 111 324 111Q368 111 396.0 128.0Q424 145 434 170H581Q569 115 534.0 72.0Q499 29 446.0 5.0Q393 -19 324 -19Z" transform="translate(28.29,0) scale(0.02600,-0.02600)"/><path d="M73 0V548H200V312H191Q191 396 212.0 452.0Q233 508 275.0 536.5Q317 565 378 565H385Q447 565 488.5 536.5Q530 508 551.5 452.0Q573 396 573 312H534Q534 396 555.5 452.0Q577 508 619.0 536.5Q661 565 722 565H729Q791 565 833.5 536.5Q876 508 898.0 452.0Q920 396 920 312V0H760V321Q760 366 736.5 394.0Q713 422 670 422Q627 422 602.0 393.5Q577 365 577 318V0H416V321Q416 366 392.5 394.0Q369 422 327 422Q283 422 258.0 393.5Q233 365 233 318V0Z" transform="translate(44.51,0) scale(0.02600,-0.02600)"/><path d="M99 0V548H259V0ZM26 430V548H259V430ZM161 602Q116 602 94.5 625.5Q73 649 73 685Q73 722 94.5 745.5Q116 769 161 769Q206 769 227.5 745.5Q249 722 249 685Q249 649 227.5 625.5Q206 602 161 602Z" transform="translate(70.07,0) scale(0.02600,-0.02600)"/><path d="M258 -17Q163 -17 112.0 44.5Q61 106 61 230V548H221V222Q221 178 246.0 152.0Q271 126 313 126Q356 126 383.0 153.0Q410 180 410 226V548H570V0H443V231H454Q454 148 432.5 92.5Q411 37 369.0 10.0Q327 -17 265 -17Z" transform="translate(78.75,0) scale(0.02600,-0.02600)"/><path d="M73 0V548H200V312H191Q191 396 212.0 452.0Q233 508 275.0 536.5Q317 565 378 565H385Q447 565 488.5 536.5Q530 508 551.5 452.0Q573 396 573 312H534Q534 396 555.5 452.0Q577 508 619.0 536.5Q661 565 722 565H729Q791 565 833.5 536.5Q876 508 898.0 452.0Q920 396 920 312V0H760V321Q760 366 736.5 394.0Q713 422 670 422Q627 422 602.0 393.5Q577 365 577 318V0H416V321Q416 366 392.5 394.0Q369 422 327 422Q283 422 258.0 393.5Q233 365 233 318V0Z" transform="translate(95.52,0) scale(0.02600,-0.02600)"/><path d="M274 0 374 530H549L665 0H541L422 526H493L386 0ZM236 0 235 133H345L346 0ZM164 0 17 548H174L311 0ZM582 0 583 133H693V0ZM627 0 749 548H896L764 0Z" transform="translate(126.54,0) scale(0.02600,-0.02600)"/><path d="M324 -19Q254 -19 200.5 5.0Q147 29 111.5 69.5Q76 110 57.5 160.5Q39 211 39 264V284Q39 339 57.5 389.5Q76 440 111.0 480.0Q146 520 198.5 543.5Q251 567 318 567Q406 567 466.5 527.5Q527 488 559.0 424.5Q591 361 591 286V232H106V323H494L442 281Q442 330 428.0 365.0Q414 400 386.5 418.5Q359 437 318 437Q276 437 247.0 418.0Q218 399 203.0 362.5Q188 326 188 273Q188 224 202.0 187.5Q216 151 246.0 131.0Q276 111 324 111Q368 111 396.0 128.0Q424 145 434 170H581Q569 115 534.0 72.0Q499 29 446.0 5.0Q393 -19 324 -19Z" transform="translate(150.51,0) scale(0.02600,-0.02600)"/><path d="M410 -18Q343 -18 292.0 10.5Q241 39 212.0 93.0Q183 147 181 225H200V0H73V730H233V359L195 311Q198 394 226.5 450.5Q255 507 305.0 535.5Q355 564 419 564Q475 564 520.5 543.5Q566 523 598.0 485.5Q630 448 647.5 397.0Q665 346 665 286V264Q665 204 647.5 153.0Q630 102 596.5 63.5Q563 25 516.0 3.5Q469 -18 410 -18ZM368 116Q409 116 439.5 136.0Q470 156 487.0 192.5Q504 229 504 275Q504 322 487.0 357.0Q470 392 439.5 411.5Q409 431 368 431Q332 431 300.0 414.0Q268 397 248.5 365.5Q229 334 229 289V252Q229 209 249.5 178.5Q270 148 302.0 132.0Q334 116 368 116Z" transform="translate(166.74,0) scale(0.02600,-0.02600)"/><path d="M281 -17Q164 -17 98.0 31.0Q32 79 28 166H170Q174 140 201.5 119.5Q229 99 284 99Q326 99 353.5 113.5Q381 128 381 155Q381 179 360.0 193.5Q339 208 285 214L242 218Q143 228 93.5 273.0Q44 318 44 388Q44 446 73.0 485.0Q102 524 153.5 544.0Q205 564 271 564Q377 564 442.0 517.5Q507 471 510 383H368Q364 410 340.0 428.5Q316 447 269 447Q232 447 210.0 433.0Q188 419 188 395Q188 372 207.0 360.0Q226 348 269 343L312 339Q413 328 469.0 283.0Q525 238 525 162Q525 107 495.0 66.5Q465 26 410.0 4.5Q355 -17 281 -17Z" transform="translate(185.02,0) scale(0.02600,-0.02600)"/><path d="M99 0V548H259V0ZM26 430V548H259V430ZM161 602Q116 602 94.5 625.5Q73 649 73 685Q73 722 94.5 745.5Q116 769 161 769Q206 769 227.5 745.5Q249 722 249 685Q249 649 227.5 625.5Q206 602 161 602Z" transform="translate(199.47,0) scale(0.02600,-0.02600)"/><path d="M322 -7Q239 -7 188.0 13.5Q137 34 113.5 82.5Q90 131 90 214V696H239V208Q239 169 259.5 148.5Q280 128 318 128H399V-7ZM7 431V548H399V431Z" transform="translate(208.16,0) scale(0.02600,-0.02600)"/><path d="M324 -19Q254 -19 200.5 5.0Q147 29 111.5 69.5Q76 110 57.5 160.5Q39 211 39 264V284Q39 339 57.5 389.5Q76 440 111.0 480.0Q146 520 198.5 543.5Q251 567 318 567Q406 567 466.5 527.5Q527 488 559.0 424.5Q591 361 591 286V232H106V323H494L442 281Q442 330 428.0 365.0Q414 400 386.5 418.5Q359 437 318 437Q276 437 247.0 418.0Q218 399 203.0 362.5Q188 326 188 273Q188 224 202.0 187.5Q216 151 246.0 131.0Q276 111 324 111Q368 111 396.0 128.0Q424 145 434 170H581Q569 115 534.0 72.0Q499 29 446.0 5.0Q393 -19 324 -19Z" transform="translate(219.44,0) scale(0.02600,-0.02600)"/><path d="M281 -17Q164 -17 98.0 31.0Q32 79 28 166H170Q174 140 201.5 119.5Q229 99 284 99Q326 99 353.5 113.5Q381 128 381 155Q381 179 360.0 193.5Q339 208 285 214L242 218Q143 228 93.5 273.0Q44 318 44 388Q44 446 73.0 485.0Q102 524 153.5 544.0Q205 564 271 564Q377 564 442.0 517.5Q507 471 510 383H368Q364 410 340.0 428.5Q316 447 269 447Q232 447 210.0 433.0Q188 419 188 395Q188 372 207.0 360.0Q226 348 269 343L312 339Q413 328 469.0 283.0Q525 238 525 162Q525 107 495.0 66.5Q465 26 410.0 4.5Q355 -17 281 -17Z" transform="translate(235.66,0) scale(0.02600,-0.02600)"/><path d="M85 0V553Q85 648 139.0 694.0Q193 740 298 740H368V620H291Q264 620 249.0 605.0Q234 590 234 563V0ZM20 420V537H376V420Z" transform="translate(255.58,0) scale(0.02600,-0.02600)"/><path d="M340 -19Q268 -19 212.0 3.5Q156 26 117.5 65.0Q79 104 59.0 154.5Q39 205 39 261V284Q39 341 59.5 392.5Q80 444 119.5 483.0Q159 522 215.0 544.5Q271 567 340 567Q411 567 466.5 544.5Q522 522 561.0 483.0Q600 444 621.0 392.5Q642 341 642 284V261Q642 205 622.0 154.5Q602 104 563.5 65.0Q525 26 469.0 3.5Q413 -19 340 -19ZM340 116Q387 116 418.0 136.0Q449 156 465.5 192.0Q482 228 482 272Q482 319 465.0 354.5Q448 390 416.5 411.0Q385 432 340 432Q296 432 264.0 411.0Q232 390 215.5 354.5Q199 319 199 272Q199 228 215.0 192.0Q231 156 263.0 136.0Q295 116 340 116Z" transform="translate(265.51,0) scale(0.02600,-0.02600)"/><path d="M73 0V548H200V313H197Q197 429 246.5 492.0Q296 555 390 555H411V417H371Q305 417 269.0 381.5Q233 346 233 279V0Z" transform="translate(283.22,0) scale(0.02600,-0.02600)"/><path d="M281 -17Q164 -17 98.0 31.0Q32 79 28 166H170Q174 140 201.5 119.5Q229 99 284 99Q326 99 353.5 113.5Q381 128 381 155Q381 179 360.0 193.5Q339 208 285 214L242 218Q143 228 93.5 273.0Q44 318 44 388Q44 446 73.0 485.0Q102 524 153.5 544.0Q205 564 271 564Q377 564 442.0 517.5Q507 471 510 383H368Q364 410 340.0 428.5Q316 447 269 447Q232 447 210.0 433.0Q188 419 188 395Q188 372 207.0 360.0Q226 348 269 343L312 339Q413 328 469.0 283.0Q525 238 525 162Q525 107 495.0 66.5Q465 26 410.0 4.5Q355 -17 281 -17Z" transform="translate(299.62,0) scale(0.02600,-0.02600)"/><path d="M324 -19Q254 -19 200.5 5.0Q147 29 111.5 69.5Q76 110 57.5 160.5Q39 211 39 264V284Q39 339 57.5 389.5Q76 440 111.0 480.0Q146 520 198.5 543.5Q251 567 318 567Q406 567 466.5 527.5Q527 488 559.0 424.5Q591 361 591 286V232H106V323H494L442 281Q442 330 428.0 365.0Q414 400 386.5 418.5Q359 437 318 437Q276 437 247.0 418.0Q218 399 203.0 362.5Q188 326 188 273Q188 224 202.0 187.5Q216 151 246.0 131.0Q276 111 324 111Q368 111 396.0 128.0Q424 145 434 170H581Q569 115 534.0 72.0Q499 29 446.0 5.0Q393 -19 324 -19Z" transform="translate(314.08,0) scale(0.02600,-0.02600)"/><path d="M73 0V548H200V313H197Q197 429 246.5 492.0Q296 555 390 555H411V417H371Q305 417 269.0 381.5Q233 346 233 279V0Z" transform="translate(330.30,0) scale(0.02600,-0.02600)"/><path d="M179 0 15 548H180L334 0ZM229 0V133H390V0ZM288 0 421 548H575L433 0Z" transform="translate(341.25,0) scale(0.02600,-0.02600)"/><path d="M99 0V548H259V0ZM26 430V548H259V430ZM161 602Q116 602 94.5 625.5Q73 649 73 685Q73 722 94.5 745.5Q116 769 161 769Q206 769 227.5 745.5Q249 722 249 685Q249 649 227.5 625.5Q206 602 161 602Z" transform="translate(356.77,0) scale(0.02600,-0.02600)"/><path d="M319 -19Q248 -19 195.5 4.5Q143 28 108.0 68.0Q73 108 56.0 158.5Q39 209 39 263V282Q39 338 57.0 389.5Q75 441 110.0 481.0Q145 521 197.5 544.0Q250 567 318 567Q392 567 449.0 538.5Q506 510 540.0 459.0Q574 408 578 342H421Q417 379 391.5 404.5Q366 430 318 430Q278 430 251.5 410.0Q225 390 212.0 355.0Q199 320 199 272Q199 228 211.0 192.5Q223 157 249.5 137.5Q276 118 319 118Q351 118 373.5 129.5Q396 141 409.5 161.5Q423 182 426 209H582Q579 141 544.0 89.5Q509 38 451.0 9.5Q393 -19 319 -19Z" transform="translate(365.46,0) scale(0.02600,-0.02600)"/><path d="M324 -19Q254 -19 200.5 5.0Q147 29 111.5 69.5Q76 110 57.5 160.5Q39 211 39 264V284Q39 339 57.5 389.5Q76 440 111.0 480.0Q146 520 198.5 543.5Q251 567 318 567Q406 567 466.5 527.5Q527 488 559.0 424.5Q591 361 591 286V232H106V323H494L442 281Q442 330 428.0 365.0Q414 400 386.5 418.5Q359 437 318 437Q276 437 247.0 418.0Q218 399 203.0 362.5Q188 326 188 273Q188 224 202.0 187.5Q216 151 246.0 131.0Q276 111 324 111Q368 111 396.0 128.0Q424 145 434 170H581Q569 115 534.0 72.0Q499 29 446.0 5.0Q393 -19 324 -19Z" transform="translate(381.34,0) scale(0.02600,-0.02600)"/><path d="M410 -18Q343 -18 292.0 10.5Q241 39 212.0 93.0Q183 147 181 225H200V0H73V730H233V359L195 311Q198 394 226.5 450.5Q255 507 305.0 535.5Q355 564 419 564Q475 564 520.5 543.5Q566 523 598.0 485.5Q630 448 647.5 397.0Q665 346 665 286V264Q665 204 647.5 153.0Q630 102 596.5 63.5Q563 25 516.0 3.5Q469 -18 410 -18ZM368 116Q409 116 439.5 136.0Q470 156 487.0 192.5Q504 229 504 275Q504 322 487.0 357.0Q470 392 439.5 411.5Q409 431 368 431Q332 431 300.0 414.0Q268 397 248.5 365.5Q229 334 229 289V252Q229 209 249.5 178.5Q270 148 302.0 132.0Q334 116 368 116Z" transform="translate(403.03,0) scale(0.02600,-0.02600)"/><path d="M258 -17Q163 -17 112.0 44.5Q61 106 61 230V548H221V222Q221 178 246.0 152.0Q271 126 313 126Q356 126 383.0 153.0Q410 180 410 226V548H570V0H443V231H454Q454 148 432.5 92.5Q411 37 369.0 10.0Q327 -17 265 -17Z" transform="translate(421.30,0) scale(0.02600,-0.02600)"/><path d="M281 -17Q164 -17 98.0 31.0Q32 79 28 166H170Q174 140 201.5 119.5Q229 99 284 99Q326 99 353.5 113.5Q381 128 381 155Q381 179 360.0 193.5Q339 208 285 214L242 218Q143 228 93.5 273.0Q44 318 44 388Q44 446 73.0 485.0Q102 524 153.5 544.0Q205 564 271 564Q377 564 442.0 517.5Q507 471 510 383H368Q364 410 340.0 428.5Q316 447 269 447Q232 447 210.0 433.0Q188 419 188 395Q188 372 207.0 360.0Q226 348 269 343L312 339Q413 328 469.0 283.0Q525 238 525 162Q525 107 495.0 66.5Q465 26 410.0 4.5Q355 -17 281 -17Z" transform="translate(438.07,0) scale(0.02600,-0.02600)"/><path d="M99 0V548H259V0ZM26 430V548H259V430ZM161 602Q116 602 94.5 625.5Q73 649 73 685Q73 722 94.5 745.5Q116 769 161 769Q206 769 227.5 745.5Q249 722 249 685Q249 649 227.5 625.5Q206 602 161 602Z" transform="translate(452.53,0) scale(0.02600,-0.02600)"/><path d="M73 0V548H200V313H191Q191 397 212.5 453.0Q234 509 278.0 537.0Q322 565 385 565H392Q488 565 538.5 502.5Q589 440 589 313V0H429V322Q429 366 403.0 394.0Q377 422 333 422Q288 422 260.5 393.5Q233 365 233 319V0Z" transform="translate(461.21,0) scale(0.02600,-0.02600)"/><path d="M324 -19Q254 -19 200.5 5.0Q147 29 111.5 69.5Q76 110 57.5 160.5Q39 211 39 264V284Q39 339 57.5 389.5Q76 440 111.0 480.0Q146 520 198.5 543.5Q251 567 318 567Q406 567 466.5 527.5Q527 488 559.0 424.5Q591 361 591 286V232H106V323H494L442 281Q442 330 428.0 365.0Q414 400 386.5 418.5Q359 437 318 437Q276 437 247.0 418.0Q218 399 203.0 362.5Q188 326 188 273Q188 224 202.0 187.5Q216 151 246.0 131.0Q276 111 324 111Q368 111 396.0 128.0Q424 145 434 170H581Q569 115 534.0 72.0Q499 29 446.0 5.0Q393 -19 324 -19Z" transform="translate(478.17,0) scale(0.02600,-0.02600)"/><path d="M281 -17Q164 -17 98.0 31.0Q32 79 28 166H170Q174 140 201.5 119.5Q229 99 284 99Q326 99 353.5 113.5Q381 128 381 155Q381 179 360.0 193.5Q339 208 285 214L242 218Q143 228 93.5 273.0Q44 318 44 388Q44 446 73.0 485.0Q102 524 153.5 544.0Q205 564 271 564Q377 564 442.0 517.5Q507 471 510 383H368Q364 410 340.0 428.5Q316 447 269 447Q232 447 210.0 433.0Q188 419 188 395Q188 372 207.0 360.0Q226 348 269 343L312 339Q413 328 469.0 283.0Q525 238 525 162Q525 107 495.0 66.5Q465 26 410.0 4.5Q355 -17 281 -17Z" transform="translate(494.39,0) scale(0.02600,-0.02600)"/><path d="M281 -17Q164 -17 98.0 31.0Q32 79 28 166H170Q174 140 201.5 119.5Q229 99 284 99Q326 99 353.5 113.5Q381 128 381 155Q381 179 360.0 193.5Q339 208 285 214L242 218Q143 228 93.5 273.0Q44 318 44 388Q44 446 73.0 485.0Q102 524 153.5 544.0Q205 564 271 564Q377 564 442.0 517.5Q507 471 510 383H368Q364 410 340.0 428.5Q316 447 269 447Q232 447 210.0 433.0Q188 419 188 395Q188 372 207.0 360.0Q226 348 269 343L312 339Q413 328 469.0 283.0Q525 238 525 162Q525 107 495.0 66.5Q465 26 410.0 4.5Q355 -17 281 -17Z" transform="translate(508.85,0) scale(0.02600,-0.02600)"/><path d="M324 -19Q254 -19 200.5 5.0Q147 29 111.5 69.5Q76 110 57.5 160.5Q39 211 39 264V284Q39 339 57.5 389.5Q76 440 111.0 480.0Q146 520 198.5 543.5Q251 567 318 567Q406 567 466.5 527.5Q527 488 559.0 424.5Q591 361 591 286V232H106V323H494L442 281Q442 330 428.0 365.0Q414 400 386.5 418.5Q359 437 318 437Q276 437 247.0 418.0Q218 399 203.0 362.5Q188 326 188 273Q188 224 202.0 187.5Q216 151 246.0 131.0Q276 111 324 111Q368 111 396.0 128.0Q424 145 434 170H581Q569 115 534.0 72.0Q499 29 446.0 5.0Q393 -19 324 -19Z" transform="translate(523.30,0) scale(0.02600,-0.02600)"/><path d="M281 -17Q164 -17 98.0 31.0Q32 79 28 166H170Q174 140 201.5 119.5Q229 99 284 99Q326 99 353.5 113.5Q381 128 381 155Q381 179 360.0 193.5Q339 208 285 214L242 218Q143 228 93.5 273.0Q44 318 44 388Q44 446 73.0 485.0Q102 524 153.5 544.0Q205 564 271 564Q377 564 442.0 517.5Q507 471 510 383H368Q364 410 340.0 428.5Q316 447 269 447Q232 447 210.0 433.0Q188 419 188 395Q188 372 207.0 360.0Q226 348 269 343L312 339Q413 328 469.0 283.0Q525 238 525 162Q525 107 495.0 66.5Q465 26 410.0 4.5Q355 -17 281 -17Z" transform="translate(539.53,0) scale(0.02600,-0.02600)"/></g>
</svg>
